<svg xmlns="http://www.w3.org/2000/svg" xmlns:xlink="http://www.w3.org/1999/xlink" width="186" height="172" viewBox="0 0 186 172">
  <defs>
    <clipPath id="clip-path">
      <rect id="Rectangle_29" data-name="Rectangle 29" width="186" height="172" transform="translate(239 752)" fill="#fff" stroke="#707070" stroke-width="1"/>
    </clipPath>
  </defs>
  <g id="europe" transform="translate(-239 -752)" clip-path="url(#clip-path)">
    <g id="europe_1_" data-name="europe (1)" transform="translate(239 751.252)">
      <path id="Path_58" data-name="Path 58" d="M174,.515a16.4,16.4,0,0,0-11.951,4.453l-17.41,16.415c-1.08,1.017-2.229,2.178-2.342,3.657-.1,1.362.706,2.617.931,3.964.609,3.628-3.427,6.7-7.092,6.443a11.422,11.422,0,0,1-5.53-2.069,3.9,3.9,0,0,1-.794-5.844,15.82,15.82,0,0,0,2.545-3.813,3.926,3.926,0,0,0-2.333-5.387l-9.212-3.058c-4.458-1.481-9.174-2.979-13.77-2.016-6.687,1.4-11.216,7.552-14.582,13.507S85.928,39.286,80.066,42.8c-1.859,1.114-3.925,1.874-5.693,3.127-1.654,1.173-8.3,9.332-7.058,12.286a5.367,5.367,0,0,0,4.6,3.167c3.494.269,6.249-1.571,8.748-3.679a.737.737,0,0,1,1.213.631c-.694,6.963-.677,17.3,3.358,17.744,4.416.489,10.6-12.454,10.747-16.469s-3.285-3.764-3.076-6.236,1.329-4.759,2.133-7.106c1.629-4.747,2.153-10.187,6.834-13.112a5.678,5.678,0,0,1,6.8.446c2.09,1.883,1.695,4.5.719,6.628-1.265,2.763-3.452,5.031-4.646,7.825s-.974,6.651,1.665,8.147c2.817,1.6,6.206-.419,9.026-2.01s7.1-2.433,8.707.379c-.9,4.547-1.878,9.271-4.687,12.954s-8.032,5.965-12.2,3.942c-2.054.33-3.172,2.657-3.316,4.737s.321,4.2-.155,6.233C102.425,88.206,95,89.62,89.088,89.86l-11.753.479a3.224,3.224,0,0,1-2.269-.477,3.1,3.1,0,0,1-.768-2.353c-.082-3.143,1.534-6.861-.552-9.4-1.7-1.613-6.716-1.195-7.576.988s.725,6.4-.879,8.56-5.778,3.048-8.434,7.825a14.027,14.027,0,0,1-2.435,3.8,9.836,9.836,0,0,1-3.767,1.82c-6.406,2.027-16.342-2.562-19.6.961-2.72,3.357-1.21,8.289.2,12.374s2.277,9.384-1.1,12.071c-3.052,2.427-7.5,1.031-11.1-.462L10.1,122.327a4.173,4.173,0,0,0-5.623,2.754L1.047,137.617c-.7,2.544-1.395,5.2-.856,7.785.959,4.585,5.53,7.521,10.024,8.813,3.1.892,6.355,1.261,9.493,1.99a4.377,4.377,0,0,0,5.2-3.042,23.873,23.873,0,0,1,2.262-5.55c1.76-3.008,4.671-5.545,8.126-5.968,1.71-.207,3.766-.033,4.8-1.416.812-1.091.549-2.67,1.2-3.864,1.185-2.178,4.325-1.832,6.785-1.549a24.5,24.5,0,0,0,12.28-1.793,4.347,4.347,0,0,1,5.225,1.419c2.955,4.106,4.762,11.511,7.418,15.9,2.351,3.885,4.1,4.867,4.389,9.715A2.937,2.937,0,0,1,76.2,162.6c-2.126,1.568-4.088,3.427-6.554,3.631a.874.874,0,0,0-.7,1.293,17.2,17.2,0,0,0,4.877,4.8,6.47,6.47,0,0,0,4.285.109c4.919-1.152,6.863-5.623,7.449-6.651s3.546-1.9,3.546-1.9a1.147,1.147,0,0,0,1.623-.218,3.722,3.722,0,0,0,.1-3.746,10.96,10.96,0,0,0-3.783-3.455c-4.855-3.324-5.456-12.765-8.8-17.61a11.358,11.358,0,0,1-1.745-3.918,2.664,2.664,0,0,1,3.952-2.855l16,9.385a6.84,6.84,0,0,1,2.435,1.995c1.493,2.32-.2,5.484.6,8.125.618,2.038,2.557,3.313,4.137,4.738s.63,4.476,2.077,5.575a3.935,3.935,0,0,0,3.034-.06,5.979,5.979,0,0,1,2.333-.5c1.916-.022,3.94-.718,3.542-2.532a2.533,2.533,0,0,0-.494-1l-3.151-6.4c-.512-1.907,1.507-2.221,2.636-2.271s3.888-.01,5.359-.01,8.663-6.512,9.175-9.393q.918-5.158,1.837-10.316a7.924,7.924,0,0,1,1.744-4.38c1.129-1.128,2.435.876,4.138.106,2.2-1,.87-3.721,3.949-3.791a3.525,3.525,0,0,1,2.969,1.534,1.28,1.28,0,0,0,1.213.685,1.492,1.492,0,0,0,.77-.309c2.3-1.743,4.006-4.13,6.158-6.041,2.033-1.805,6.191-4.133,7.383-2.735s3.03,7.151-6.3,12.43c-2,1.132-2.048,2.791-1,4.964a2.831,2.831,0,0,0,2.538,1.526c2.478.037,6.042-3.455,10.225-.036.312.257,2.463,6.233-2.047,7.507-6.164,1.743-8.71,1.492-16.054,2.445-3.372.437-7.036,1.019-9.344,3.519-1.641,1.778-2.394,4.346-4.365,5.748-1.065.758-2.4,1.1-3.387,1.963a5.594,5.594,0,0,0-1.31,5.66,16.461,16.461,0,0,0,3.02,5.287A8.27,8.27,0,0,0,133,168.174a6.329,6.329,0,0,0,3.061.5c6.164-.255,12.141-4.67,18.049-2.887a13.893,13.893,0,0,0,3.751,1.038c1.766.013,3.3-1.137,4.746-2.153a45.933,45.933,0,0,1,19.863-7.85c1.535-.216,3.319-.507,4.067-1.868a4.786,4.786,0,0,0,.425-2.092c.189-3.725.124-8.052-2.782-10.385a19.308,19.308,0,0,0-4.125-2.069c-4.228-1.963-5.141-8.671-3.634-11.2,1.088-1.823,10.531,3.018,15.726,5.866a2.289,2.289,0,0,0,3.39-2.01L195.544,2.8a2.289,2.289,0,0,0-2.3-2.29C188.1.543,176,.6,174,.515Zm0,0" transform="translate(0 0)" fill="#47567d"/>
      <g id="Group_42" data-name="Group 42" transform="translate(149.691 0.501)">
        <path id="Path_59" data-name="Path 59" d="M453.792.545c-.63-.007-1.107-.016-1.387-.028a16.374,16.374,0,0,0-1.971.039C451.557.553,452.693.55,453.792.545Zm0,0" transform="translate(-428.094 -0.503)" fill="#47567d"/>
        <path id="Path_60" data-name="Path 60" d="M426.434,349.35a19.239,19.239,0,0,0-4.125-2.069c-2.869-1.332-3.537-8.289-3.634-11.2-4.874-2.46-4.92.84-5.729,2.2a6.518,6.518,0,0,0-.355,4.9c.71,2.842.835,5.2,2.039,6.17,2.906,2.332,2.97,6.658,2.782,10.383a4.8,4.8,0,0,1-.425,2.092c-.747,1.362-2.532,1.651-4.067,1.869a45.933,45.933,0,0,0-19.863,7.85c-.366.257-.737.522-1.116.774a10.962,10.962,0,0,1,4.423.34,13.81,13.81,0,0,0,3.749,1.037c1.768.015,3.3-1.135,4.747-2.151a45.934,45.934,0,0,1,19.861-7.85c1.537-.216,3.319-.507,4.067-1.868a4.789,4.789,0,0,0,.427-2.093c.188-3.725.124-8.052-2.782-10.383Zm0,0" transform="translate(-391.941 -207.367)" fill="#47567d"/>
        <path id="Path_61" data-name="Path 61" d="M481.087.576l0,130.271c2.9,1.3,6.081,2.973,8.408,4.25a2.292,2.292,0,0,0,3.4-2.007l0-130.265a2.29,2.29,0,0,0-2.3-2.29c-2.287.013-5.957.031-9.5.04Zm0,0" transform="translate(-447.038 -0.523)" fill="#47567d"/>
      </g>
    </g>
  </g>
</svg>
