<svg xmlns="http://www.w3.org/2000/svg" width="84.48" height="80.367" viewBox="0 0 84.48 80.367">
  <g id="logo" transform="translate(-210.048 -232.856)">
    <path id="Path_13" data-name="Path 13" d="M323.519,232.856c.631.568,1.385,1.034,1.59,1.951.035.155.174.17.3.177a1.6,1.6,0,0,0,.388,0c2.335-.47,3.885.647,5.412,2.3,2.856,3.092,5.914,6,8.926,9.019,3.482-3.486,6.934-6.908,10.338-10.378a2.479,2.479,0,0,1,2.268-.946c.317.048.649-.014.971.012.827.065,1.577.091,1.856-.975.149-.569.88-.689,1.2-1.165h1.75a2.91,2.91,0,0,1,1.79,2.631,2.559,2.559,0,0,1-2.027,2.51,2.452,2.452,0,0,1-2.84-1.327c-.274-.629-.641-.679-1.229-.754a4.4,4.4,0,0,0-4.039,1.653c-3.069,3.249-6.3,6.341-9.441,9.527-.48.487-.713.478-1.187,0-3.322-3.368-6.7-6.676-10-10.066a3.127,3.127,0,0,0-2.7-1.106c-.912.074-1.734-.109-2.24,1.069a2.138,2.138,0,0,1-2.516,1.029,2.44,2.44,0,0,1-2.053-1.957,2.513,2.513,0,0,1,1.022-2.741c.227-.165.469-.31.7-.465Zm.687,2.559a1.657,1.657,0,0,0-1.731-1.584,1.58,1.58,0,0,0-1.512,1.67,1.615,1.615,0,0,0,1.7,1.6A1.7,1.7,0,0,0,324.205,235.415Zm35.127.064a1.578,1.578,0,0,0-1.631-1.648,1.655,1.655,0,0,0-1.613,1.6,1.689,1.689,0,0,0,1.661,1.666A1.623,1.623,0,0,0,359.332,235.479Z" transform="translate(-88.54)" fill="#0d9efa"/>
    <path id="Path_14" data-name="Path 14" d="M257.931,274.993c1.869-.195,3.46-.373,5.053-.519.454-.042.961-.311,1.354.183.14.176.279.085.407-.025a1.084,1.084,0,0,0,.208-.2c1.264-1.9,3.087-2.145,5.217-2.066,3.916.146,7.842.054,11.764.028a1.817,1.817,0,0,1,1.442.6c1.628,1.671,3.3,3.3,4.936,4.964a1.14,1.14,0,0,0,1.257.422,2.518,2.518,0,0,1,2.9,1.418,2.617,2.617,0,0,1-3.986,3.159,2.494,2.494,0,0,1-.719-3.141.84.84,0,0,0-.2-1.212q-2.4-2.34-4.744-4.743a1.515,1.515,0,0,0-1.193-.488c-4.505.017-9.011.036-13.515-.012-.884-.01-1.242.588-1.729,1.063-1.355,1.324-1.347,1.336-.329,2.923.923,1.44,1.851,2.877,2.852,4.432,1.005-1.031,1.948-1.963,2.848-2.936a1.662,1.662,0,0,1,1.365-.554c2.43.027,4.862.033,7.292,0a1.81,1.81,0,0,1,1.433.622c2.6,2.628,5.222,5.229,7.823,7.853a.9.9,0,0,0,1.235.271,2.508,2.508,0,0,1,3.117.814,2.63,2.63,0,0,1-.055,3.164,2.575,2.575,0,0,1-3.149.741,2.448,2.448,0,0,1-1.4-2.888,1.311,1.311,0,0,0-.434-1.422q-3.847-3.784-7.636-7.627a1.7,1.7,0,0,0-1.347-.578q-3.257.048-6.514,0a1.564,1.564,0,0,0-1.269.537c-.755.8-1.533,1.585-2.339,2.335a.678.678,0,0,0-.095,1.061c.742,1.057,1.218,2.487,2.213,3.126.97.622,2.457.151,3.716.17,1.555.023,3.112.027,4.667-.006a1.7,1.7,0,0,1,1.363.548q4.962,5.008,9.972,9.967a1.833,1.833,0,0,1,.579,1.454c-.027,2.787,0,5.575-.019,8.362,0,.559.05.92.7,1.165a2.5,2.5,0,0,1,1.5,2.94,2.624,2.624,0,0,1-5.006.3,2.532,2.532,0,0,1,1.138-3.107,1.152,1.152,0,0,0,.681-1.208q-.044-4.083,0-8.167a1.736,1.736,0,0,0-.562-1.364q-4.73-4.689-9.43-9.408c-.223-.222-.407-.5-.79-.5-2.578.007-5.157,0-7.932,0,.436.695.768,1.232,1.109,1.765,1.046,1.637,2.069,3.289,3.157,4.9a.833.833,0,0,1-.057,1.174c-.741.928-1.441,1.889-2.294,3.017H278.6c1.3,0,2.595.041,3.889-.016.707-.031.852.223.85.881-.023,5.931-.007,11.863-.023,17.794,0,.651.044,1.1.784,1.42a2.468,2.468,0,0,1,1.229,2.976,2.625,2.625,0,0,1-5.014-.01,2.487,2.487,0,0,1,1.25-2.976c.709-.3.761-.721.759-1.338-.012-5.575-.03-11.15.016-16.724.007-.884-.248-1.073-1.081-1.051-2.235.059-4.473.038-6.709.008a1.389,1.389,0,0,0-1.291.623c-2.179,2.935-4.4,5.84-6.594,8.744.227.392.553.243.811.245,2.074.014,4.15.046,6.223-.011.853-.023,1.158.161,1.144,1.1-.058,3.986-.016,7.973-.035,11.959a1.122,1.122,0,0,0,.716,1.261,2.444,2.444,0,0,1,1.331,2.92,2.557,2.557,0,0,1-2.569,1.956,2.616,2.616,0,0,1-2.486-1.954,2.5,2.5,0,0,1,1.35-2.929,1.109,1.109,0,0,0,.734-1.24q-.036-5.591,0-11.182c.005-.662-.152-.895-.851-.878-1.976.047-3.954.013-5.931.022-.209,0-.487-.106-.613.143s.135.411.254.582c.59.852,1.182,1.7,1.813,2.525a.9.9,0,0,1,.021,1.271c-.988,1.323-1.9,2.7-2.889,4.025a.691.691,0,0,0,.088,1.114c1.7,1.647,3.339,3.353,5.041,5,.481.464.509.718.013,1.206-3.049,3-6.059,6.042-9.092,9.059a1.114,1.114,0,0,0-.4,1.394,2.481,2.481,0,0,1-1.15,3.013,2.624,2.624,0,0,1-3.138-.391,2.6,2.6,0,0,1-.4-3.211,2.514,2.514,0,0,1,3.032-1.1,1,1,0,0,0,1.253-.3q4.207-4.25,8.458-8.455c.455-.449.575-.717.046-1.219-1.411-1.337-2.779-2.721-4.128-4.122-.45-.468-.767-.532-1.065.084-.246.509-.561.57-1.086.36q-4.415-1.762-8.86-3.449c-.518-.2-.623-.463-.678-.983a3.077,3.077,0,0,1,1.131-2.79c1.851-1.72,3.58-3.569,5.393-5.331a1,1,0,0,0,.291-1.333c-.859-1.862-1.662-3.75-2.672-5.581,0,1.245-.023,2.491.011,3.735.015.56-.1.8-.737.792-3.176-.033-6.353-.027-9.529,0-.553,0-.727-.166-.712-.716.035-1.263.011-2.528.011-3.8-.382,0-.355.339-.445.539-.752,1.683-1.463,3.385-2.234,5.059a.946.946,0,0,0,.248,1.257c2.015,1.973,4,3.978,5.991,5.972a3.843,3.843,0,0,1,.525,2.8c-.114.223-.348.261-.557.343-2.985,1.158-5.974,2.3-8.946,3.5a.718.718,0,0,1-1.076-.39c-.271-.531-.546-.59-1-.116-1.393,1.448-2.818,2.865-4.26,4.265-.4.391-.377.625.009,1.008q4.353,4.31,8.664,8.662a.885.885,0,0,0,1.1.232,2.563,2.563,0,0,1,3.117,1.1,2.608,2.608,0,0,1-3.58,3.568,2.511,2.511,0,0,1-1.088-3.117.941.941,0,0,0-.318-1.158c-3.057-3.039-6.09-6.1-9.16-9.128-.5-.492-.575-.753-.022-1.278,1.668-1.584,3.251-3.258,4.908-4.854.482-.464.584-.762.138-1.338-.991-1.279-1.873-2.642-2.833-3.945a.845.845,0,0,1-.009-1.19c.653-.845,1.247-1.735,1.878-2.6.322-.439.442-.727-.312-.721q-3.111.027-6.223,0c-.45,0-.626.125-.624.6.015,3.954.022,7.908-.006,11.862,0,.55.348.6.683.77a2.594,2.594,0,0,1-1.207,4.938,2.592,2.592,0,0,1-2.485-2.072,2.476,2.476,0,0,1,1.391-2.815,1.054,1.054,0,0,0,.7-1.175c-.023-4.051.008-8.1-.03-12.154-.007-.761.188-1,.966-.977,2.073.054,4.148.024,6.223.013a1.371,1.371,0,0,0,1.009-.177c-.424-.571-.836-1.135-1.257-1.692-1.8-2.379-3.6-4.75-5.382-7.138a1.224,1.224,0,0,0-1.1-.609q-3.6.048-7.195,0c-.615-.009-.755.2-.753.776q.028,8.654,0,17.308a.881.881,0,0,0,.616.931,2.589,2.589,0,1,1-3.64,2.958,2.48,2.48,0,0,1,1.445-2.96c.611-.265.585-.657.585-1.146,0-5.931.018-11.863-.025-17.794-.006-.874.233-1.076,1.077-1.056,2.518.059,5.039.021,7.775.021-.751-1.01-1.336-1.928-2.057-2.722a1.234,1.234,0,0,1-.058-1.822c1.243-1.816,2.4-3.689,3.585-5.546.128-.2.427-.417.234-.667-.094-.122-.411-.1-.627-.1-2.236-.006-4.473.012-6.709-.015a1.511,1.511,0,0,0-1.18.519q-4.7,4.723-9.422,9.416a1.635,1.635,0,0,0-.546,1.273q.037,4.181,0,8.362a1.015,1.015,0,0,0,.616,1.049,2.523,2.523,0,0,1,1.219,3.073,2.617,2.617,0,0,1-5.028-.257,2.514,2.514,0,0,1,1.525-2.93.94.94,0,0,0,.679-1.077c-.017-2.852,0-5.7-.018-8.556a1.631,1.631,0,0,1,.529-1.278q5.038-5,10.038-10.038a1.618,1.618,0,0,1,1.272-.533c2.593.025,5.186,0,7.779.023a1.163,1.163,0,0,0,1.173-.637c.535-.923,1.118-1.822,1.733-2.694a.68.68,0,0,0-.127-1.058c-.847-.8-1.667-1.633-2.477-2.473a1.186,1.186,0,0,0-.942-.379c-2.3.014-4.6.023-6.9-.006a1.392,1.392,0,0,0-1.073.53c-2.515,2.526-5.028,5.056-7.567,7.558a1.533,1.533,0,0,0-.543,1.66,2.445,2.445,0,0,1-1.8,2.913,2.606,2.606,0,0,1-1.925-4.815,2.256,2.256,0,0,1,2.151-.081c.637.349.965.107,1.389-.321,2.575-2.6,5.181-5.179,7.753-7.785a1.812,1.812,0,0,1,1.44-.606c2.43.035,4.862.032,7.292,0a1.673,1.673,0,0,1,1.359.57c.776.827,1.616,1.593,2.39,2.422.384.412.58.328.85-.1q1.549-2.467,3.146-4.905c.228-.35.3-.631-.074-.908a.944.944,0,0,1-.206-.206,4.474,4.474,0,0,0-4.251-1.821c-3.851.15-7.712.06-11.569.031a1.914,1.914,0,0,0-1.519.644c-1.512,1.558-3.054,3.088-4.6,4.609-.358.351-.513.6-.223,1.129a2.51,2.51,0,0,1-.618,3.165,2.623,2.623,0,0,1-4.085-3.046,2.55,2.55,0,0,1,2.95-1.485,1.082,1.082,0,0,0,1.183-.369c1.66-1.686,3.355-3.337,5-5.034a1.818,1.818,0,0,1,1.448-.587q6.952.033,13.9,0a1.966,1.966,0,0,1,1.768.745,4.549,4.549,0,0,0,.615.621c.509.454.78,1.106,1.821.713.787-.3,1.84.1,2.774.2s1.863.2,2.8.3c.094-.362-.208-.465-.366-.625-1.664-1.682-3.349-3.343-5.008-5.03a1.626,1.626,0,0,0-1.269-.549q-7.438.03-14.877,0a1.064,1.064,0,0,0-1.118.661,2.511,2.511,0,0,1-3.062,1.239,2.609,2.609,0,0,1,.223-5.028,2.506,2.506,0,0,1,2.981,1.586c.232.642.608.63,1.107.63,5.027-.005,10.053.006,15.08-.015a1.937,1.937,0,0,1,1.533.629c1.992,2.041,4.031,4.036,6.032,6.069a2.322,2.322,0,0,0,1.414.709,21.854,21.854,0,0,0,6.67-.022,1.934,1.934,0,0,0,1.17-.572c2.006-2.027,4.044-4.023,6.035-6.065a2.243,2.243,0,0,1,1.775-.753c4.926.033,9.853.007,14.78.029.673,0,1.1-.068,1.378-.829a2.465,2.465,0,0,1,2.9-1.393,2.612,2.612,0,0,1,.28,5,2.472,2.472,0,0,1-3.04-1.069,1.419,1.419,0,0,0-1.524-.81q-7.2.034-14.391,0a1.933,1.933,0,0,0-1.531.628C261.742,271.214,259.925,273,257.931,274.993Zm.49,19.9c.9-.79,1.823-1.554,2.691-2.377a2.691,2.691,0,0,1,2.233-.876c1.028.094,2.072.026,3.109.018.284,0,.593.076.831-.162.927-.93,1.851-1.862,2.926-2.945-3.115,0-6.017,0-8.919,0a.487.487,0,0,0-.506.35c-.821,1.966-1.656,3.926-2.486,5.889-.149.064-.168.162-.075.29Zm-12.267,0,.2.185c.1-.127.074-.224-.074-.288-.83-1.962-1.665-3.922-2.486-5.888a.487.487,0,0,0-.506-.35c-2.9,0-5.8,0-9.019,0,1,.978,1.826,1.738,2.6,2.547a1.647,1.647,0,0,0,1.356.574c1.165-.04,2.333.008,3.5-.021a1.724,1.724,0,0,1,1.307.478C244.049,293.071,245.108,293.974,246.154,294.891ZM230.24,323.812a1.71,1.71,0,0,0-1.648,1.694,1.668,1.668,0,0,0,1.641,1.582,1.613,1.613,0,0,0,1.633-1.569A1.69,1.69,0,0,0,230.24,323.812Zm45.744,1.634a1.711,1.711,0,0,0-1.709-1.632,1.691,1.691,0,0,0-1.567,1.668,1.615,1.615,0,0,0,1.694,1.606A1.672,1.672,0,0,0,275.984,325.446Zm-52.9-57.208a1.62,1.62,0,0,0-1.535-1.664,1.6,1.6,0,0,0-1.739,1.552,1.638,1.638,0,1,0,3.274.112Zm61.681-.1a1.6,1.6,0,0,0-1.73-1.561,1.618,1.618,0,0,0-1.544,1.656,1.638,1.638,0,1,0,3.274-.1ZM214.319,310.3a1.761,1.761,0,0,0-1.712-1.653,1.726,1.726,0,0,0-1.578,1.668,1.617,1.617,0,0,0,1.588,1.621A1.7,1.7,0,0,0,214.319,310.3Zm79.226.129a1.728,1.728,0,0,0-1.561-1.781,1.753,1.753,0,0,0-1.715,1.541,1.68,1.68,0,0,0,1.479,1.739A1.626,1.626,0,0,0,293.545,310.429ZM211.03,289.29a1.676,1.676,0,0,0,1.569,1.754,1.744,1.744,0,0,0,1.709-1.537,1.684,1.684,0,0,0-1.591-1.732A1.617,1.617,0,0,0,211.03,289.29Zm80.938-1.515a1.7,1.7,0,0,0-1.712,1.623,1.787,1.787,0,0,0,1.609,1.657,1.7,1.7,0,0,0,1.68-1.654A1.61,1.61,0,0,0,291.968,287.775Zm-70.195,31.18a1.7,1.7,0,0,0-1.646,1.59,1.622,1.622,0,1,0,3.241.139A1.675,1.675,0,0,0,221.773,318.954Zm62.677,1.651a1.7,1.7,0,0,0-1.588-1.651,1.678,1.678,0,0,0-1.663,1.668,1.625,1.625,0,1,0,3.251-.017Zm-37.12,16.426a1.661,1.661,0,0,0-1.632-1.681,1.629,1.629,0,0,0-1.609,1.584,1.546,1.546,0,0,0,1.508,1.655A1.628,1.628,0,0,0,247.33,337.031Zm11.509,1.559a1.545,1.545,0,0,0,1.646-1.517,1.638,1.638,0,0,0-1.566-1.723,1.667,1.667,0,0,0-1.675,1.638A1.622,1.622,0,0,0,258.839,338.591Zm-44.4-59.332a1.722,1.722,0,0,0-1.6,1.637,1.684,1.684,0,0,0,1.67,1.653,1.645,1.645,0,0,0-.069-3.29Zm77.3,1.651a1.637,1.637,0,1,0-1.685,1.639A1.684,1.684,0,0,0,291.736,280.909Z" transform="translate(0 -26.356)" fill="#089cfa"/>
    <path id="Path_15" data-name="Path 15" d="M370.758,545.293l10.578-3.538a1.176,1.176,0,0,1,.763-.013l10.626,3.55c-1.354.827-2.59,1.581-3.825,2.337q-3.267,2-6.535,4c-.289.176-.546.443-.959.188C377.914,549.664,374.414,547.529,370.758,545.293Z" transform="translate(-129.455 -248.766)" fill="#069bfa"/>
  </g>
</svg>
