<svg xmlns="http://www.w3.org/2000/svg" xmlns:xlink="http://www.w3.org/1999/xlink" width="161" height="199" viewBox="0 0 161 199">
  <defs>
    <clipPath id="clip-path">
      <rect id="Rectangle_30" data-name="Rectangle 30" width="161" height="199" transform="translate(962 747)" fill="#fff" stroke="#707070" stroke-width="1"/>
    </clipPath>
  </defs>
  <g id="northamerica" transform="translate(-962 -747)" clip-path="url(#clip-path)">
    <g id="North_America_Mapot_uploads_svg_map_G8mLvtb-north-america-map-vector" data-name="North America Mapot_uploads_svg_map_G8mLvtb-north-america-map-vector" transform="translate(905.241 657.215)">
      <path id="svg_2" d="M150.708,61.52l.051-.253.379-.051q.379-.076.631-.152l.253-.051-.051.253a3.161,3.161,0,0,1-.2.505l-.126.253.076.051.051.076.051.076.076.051.884.631a2.808,2.808,0,0,1,1.136,1.515,1.32,1.32,0,0,1-.253,1.389,1,1,0,0,0-.126,1.263,5.936,5.936,0,0,0,1.136,1.515,2.57,2.57,0,0,1,.758,1.894,4.161,4.161,0,0,1-.833,2.349q-.808,1.187-1.187,1.263-.379.051-.379.556t-1.01.455a2.241,2.241,0,0,1-1.263-.328.728.728,0,0,0-.505-.253H150l-.505.076-.505.051v.758l.505.126q.505.126-.051,1.768a9.449,9.449,0,0,0-.581,3.157,6.123,6.123,0,0,1-.631,2.778,3.372,3.372,0,0,1-1.061,1.465,4.435,4.435,0,0,1-1.01.253,1.79,1.79,0,0,0-1.162.758,1.968,1.968,0,0,1-.934.758q-.379.05.076.808a1.987,1.987,0,0,1,.354,1.212q-.051.429-.934.758-.884.3-.884.934t-.379.631q-.379,0-.379.631t-.253.631q-.253,0-.556.884a2.142,2.142,0,0,1-.758,1.136q-.455.253-1.162,2.778a13.914,13.914,0,0,0-.429,5.051,6.963,6.963,0,0,0,.581,2.828,2.158,2.158,0,0,0,1.364.4q1.086.05,2.222,2.7a12.379,12.379,0,0,1,1.061,2.9l-.051.253,1.263-.455a5.519,5.519,0,0,1,2.4-.3,14.182,14.182,0,0,1,2.854.707,11.654,11.654,0,0,1,2.828,1.313,22.056,22.056,0,0,0,3.838,1.818,11.107,11.107,0,0,0,5.253.833,20.5,20.5,0,0,1,3.157-.177q.631.05,1.086,1.818a13.555,13.555,0,0,0,.934,2.778,9.282,9.282,0,0,1,.758,2.146,5.076,5.076,0,0,0,1.692,2.45,5.17,5.17,0,0,0,2.1,1.414q.631.051,1.136,1.01a1.791,1.791,0,0,0,1.515,1.01l1.01.051.051-.758q.076-.758.657-.758.556,0,.556-1.768t-.379-1.97A6.641,6.641,0,0,1,175.3,119.8a7.266,7.266,0,0,0-1.768-2.854,2.67,2.67,0,0,1-1.01-1.389q-.177-.758,1.086-2.02a9.064,9.064,0,0,0,2.02-3.283,7.407,7.407,0,0,0,.253-4.293,6.635,6.635,0,0,0-1.515-3.283,13.775,13.775,0,0,0-2.854-2.071A3.433,3.433,0,0,1,170,96.925a6.217,6.217,0,0,0-.253-3.586q-.556-1.01-1.187-1.061-.631-.076-.429-.909a3.738,3.738,0,0,0,0-1.616,3.785,3.785,0,0,0-.758-1.515,3.171,3.171,0,0,1-.707-1.591l-.126-.884.076-.051.051-.076.379-.126.379-.126,2.323-.328q2.349-.3,2.778-.934.455-.631,1.843-.328a12.827,12.827,0,0,1,2.6.909,3.673,3.673,0,0,1,1.364.859q.2.328,1.338.328t2.146-.076q1.01-.05,1.465,1.465a9.573,9.573,0,0,0,1.111,2.576,3.281,3.281,0,0,0,1.162,1.263.855.855,0,0,1,.505.455q.051.253,1.187.556a10.746,10.746,0,0,0,2.273.4l1.136.051.051-.253q.076-.253.328-1.01a2.741,2.741,0,0,1,.505-1.01q.253-.253,0-3.157l-.253-2.9-.076-.051-.051-.076.051-.076.076-.051.076-.051.051-.076h.758l.253.126.253.126.051.076.076.051.076.05.051.076,2.9,1.843a22.044,22.044,0,0,1,3.283,2.273,2.729,2.729,0,0,0,1.389.682,4.985,4.985,0,0,1,2.273,1.692,21.844,21.844,0,0,0,2.4,2.424,3.936,3.936,0,0,0,1.894,1.01,1.406,1.406,0,0,1,1.136.606q.379.581,2.652.455a8.1,8.1,0,0,0,2.652-.379,1.743,1.743,0,0,1,1.263-.076q.884.2.631.758-.253.581,2.525.833t3.662,1.515a8.238,8.238,0,0,0,1.439,1.692,2.451,2.451,0,0,1,.657,1.843l.051,1.389.884-.379q.884-.379,1.01.328a1.976,1.976,0,0,0,.581,1.111,1.319,1.319,0,0,1,.177,1.338,5.235,5.235,0,0,0-.126,2.02l.126,1.136.076.505.051.505h.505l.051-.758a2.154,2.154,0,0,1,.152-.808l.051-.076.505-.126.505-.126.051-.076.076-.051.076.631q.051.631,1.187.429,1.136-.177,1.263-.758a.884.884,0,0,1,.429-.682.633.633,0,0,0,.4-.505l.051-.379.379.051.379.076.051.076.076.051.076-.051.051-.076.051-.076.076-.051.076.051.051.076.379.076q.379.05.758,1.111A3.076,3.076,0,0,0,235.1,109q.505.379.758,0a1.031,1.031,0,0,1,.505-.455l.253-.051-.051.505a8.743,8.743,0,0,0-.076,1.263v.758l.126.379.126.379.076.051.051.076h.505l.051-.076.076-.051v-1.515l.076-.051.051-.076.051-.076.076-.051.126.505.126.505.126.253.126.253v3.535l-.076.051-.051.076-.051.076-.076.051-.126-.379-.126-.379-.126-.253a3.914,3.914,0,0,1-.253-.884l-.126-.631-.076-.051-.051-.076-.051-.076-.076-.051-.076-.051-.051-.076-.379-.076-.379-.051.051.505.076.505v.505l-.253.505a4.9,4.9,0,0,0-.379,1.515l-.126,1.01-.076.051-.051.076-.051.076-.076.051-.076.253-.051.253h-1.01l.051-.379.076-.379.076-.051.051-.076.051-.076a2.956,2.956,0,0,0,.2-.934l.126-.884v-.253l-.076-.051-.051-.076h-.505l-.051.076-.076.051-.126.505-.126.505-.076.051-.051.076h-1.01q-.253,0-.379.328a8.975,8.975,0,0,1-2.4,1.515,10.367,10.367,0,0,0-2.475,1.515l-.177.3-.076.051-.051.076-.253.126-.253.126h-.758l-.253-.076-.253-.051-.051-.253-.076-.253v-.505l.126-.253a4.2,4.2,0,0,0,.253-1.01l.126-.758-.076-.051q-.051-.076-.682.1-.631.2-.631-.051a.223.223,0,0,1,.253-.253q.253,0-.3-5.177l-.581-5.177-.076-.631-.051-.631-.253.051-.253.076-.253.126-.253.126-.253.126-.253.126-.051.076-.076.051-.076.051-.051.076-.051.076-.076.051-.076.051-.051.076-.051.076-.076.051-.076.051-.051.076-.051.076a1.478,1.478,0,0,0-.2.177,23.162,23.162,0,0,0-.884,3.03q-.758,2.9-1.944,3.712a25.206,25.206,0,0,1-2.98,1.717q-1.768.884-4.167,2.146a22.135,22.135,0,0,0-3.712,2.349,4.149,4.149,0,0,0-1.591,2.7,4.152,4.152,0,0,1-.581,1.944,11.07,11.07,0,0,0-1.01,1.515l-.682,1.212-.126.758-.126.758v.758l.076-.051.051-.076.051-.076.076-.051.076-.051.051-.076.051-.076.076-.051.126-.253.126-.253.076-.051.051-.076.051-.076.076-.051.126-.253.126-.253,1.136-1.136a10.945,10.945,0,0,0,1.566-1.843,6.714,6.714,0,0,1,1.717-1.566,5.973,5.973,0,0,1,1.894-1.01l.631-.126h.758l.379.076.379.051.051.253.076.253.076.051.051.076.051.076.076.051.126.253.126.253-.429,1.566q-.455,1.591-.505,1.667l-.076.051-.076.051-.051.076-.379.076-.379.051.051.253.076.253.076.051.051.076.556-.177a4.772,4.772,0,0,0,.909-.4,1.336,1.336,0,0,0,.354-.253l.076-.051.328,1.389a3.135,3.135,0,0,0,1.061,1.944,4.506,4.506,0,0,0,1.01.657l.253.051.051.253.076.253.076.051.051.076h1.01l.253-.126.253-.126.051-.076.076-.051.076-.051.051-.076-.505-.126a3.134,3.134,0,0,1-.808-.3l-.328-.2-.076-.631-.051-.631.253.051.253.076.051.076.076.051.076.051.051.076h1.136a3.342,3.342,0,0,0,1.894-.505,6.413,6.413,0,0,0,.808-.581l.076-.051.076-.051.051-.076h.505l.051.076.076.051v.758a4.27,4.27,0,0,0,.076,1.01l.051.253.253-.051.253-.076.253-.126.253-.126h.505l.253.076.253.051-.051-.379-.076-.379-.126-.253a9.874,9.874,0,0,1-.126-2.273v-2.02l.076-.379.051-.379.505.051.505.076.051.076.076.051.126.253.126.253.126.253.126.253.177.455a1.347,1.347,0,0,0,1.01.606q.833.2.581,1.338a8.3,8.3,0,0,1-.631,1.894,2.21,2.21,0,0,0-.3,1.263q.051.505-.2.505t-1.136,1.313q-.884,1.338-1.136,1.414-.253.05-.455,1.944-.177,1.894-.859,2.348a2.319,2.319,0,0,1-1.465.354q-.758-.05-1.061,1.338a4.485,4.485,0,0,1-.581,1.641,1.978,1.978,0,0,0-.379.505l-.126.253-.076.051-.051.076h-.505l-.051-.076-.076-.051-.076-.051-.051-.076-.505-.126-.505-.126-.051-.076-.076-.051-.126-.253-.126-.253-.076-.051-.051-.076-.051-.076-.076-.051-.076-.051-.051-.076-.051-.076-.076-.051v-.884a6.487,6.487,0,0,1,.379-2.02l.379-1.136.076-.051.051-.076.051-.076.076-.051v-.758l-.076-.051-.051-.076-.253-.076-.253-.051-.051.253-.076.253-.126.253-.126.253-.076.051-.051.076-.051.076-.076.051-.076.051-.051.076-1.061.833q-1.086.808-.909,1.566.2.758-.758,1.641a13.035,13.035,0,0,0-1.768,2.1q-.808,1.187-1.187,1.263-.379.051-.505.556a1.539,1.539,0,0,1-.682.884q-.581.379-.657.631a.527.527,0,0,1-.354.379q-.328.126-.758,2.146-.455,2.02-.076,2.02t.505.808a2.225,2.225,0,0,0,1.01,1.465q.884.631,1.136.505l.253-.126.051-.076.076-.051.076.051.051.076.051.076.076.051v.253l-.076.051-.051.076-.051.076-.076.051-.076.051-.051.076-.051.076-.076.051v1.01l-.076.051-.051.076-.051.076-.076.051-.076.051q-.051.076-.758,0a1.689,1.689,0,0,0-1.364.758,3.1,3.1,0,0,1-1.263,1.01q-.581.2-.152.328.455.126-.429,1.086a11.931,11.931,0,0,1-2.273,1.818,2.467,2.467,0,0,0-1.338,2.222,9.435,9.435,0,0,1-.429,3.081q-.505,1.768-1.591,1.818l-1.061.076.051.076.076.051.076.051.051.076.051.076.076.051.076.051.051.076.051.076.076.051.505.505a2.261,2.261,0,0,1,.631,1.263,4.578,4.578,0,0,1,0,1.515l-.126.758-.126.253-.126.253-.126.758-.126.758-.076.051-.051.076-.253.076-.253.051.051-.505.076-.505v-.505a.583.583,0,0,0-.429-.631l-.455-.126v-.505h-1.01l.051.631.076.631.126.253.126.253.076,1.136q.051,1.136.556,1.136t.505.253q0,.253.707.884a1.5,1.5,0,0,1,.556,1.389,4.487,4.487,0,0,1-.379,1.263q-.253.505.177.631.455.126.455,1.086a1.471,1.471,0,0,1-.455,1.263.993.993,0,0,0-.3,1.061q.126.758.379.758t-.429.707a3.535,3.535,0,0,1-.96.758q-.253.051-1.061,1.313a6.29,6.29,0,0,0-.96,1.894.893.893,0,0,1-.758.758,2.922,2.922,0,0,0-1.389.884,7.381,7.381,0,0,0-1.439,2.525,5.87,5.87,0,0,1-1.919,2.652q-1.187.884-1.111,1.136.051.253-.4.631a5.819,5.819,0,0,0-.808,2.652,11.178,11.178,0,0,0,.051,4.242,18.533,18.533,0,0,0,.707,2.525q.253.556.505.556t.96,1.136a5.46,5.46,0,0,1,.758,1.641q.051.505.354.631.328.126.707.884t1.641,2.778a7.226,7.226,0,0,1,1.263,3.788v3.535l-.076.051-.051.076-.051.076-.076.051-.076.051-.051.076-.051.076-.076.051-.076.051-.051.076-.051.076-.076.051-.076.051-.051.076-.051.076-.076.051-.076.051-.051.076-.051.076-.076.051-.076.051-.051.076-.379.076-.379.051-.051-.379a.633.633,0,0,0-.4-.505.842.842,0,0,1-.429-.631q-.126-.505-.884-.556a2.409,2.409,0,0,1-1.515-.96,6.379,6.379,0,0,1-1.01-1.465q-.253-.556-.505-.606a2.931,2.931,0,0,1-.884-.758q-.631-.707-.884-.707a.281.281,0,0,1-.3-.253,1.833,1.833,0,0,1,.1-.884q.2-.631-.3-.581-.505.076-.556-1.263a10.3,10.3,0,0,0-.328-2.2q-.253-.884-.833-.934-.556-.076-1.566-1.212a4.112,4.112,0,0,0-2.146-1.389,1.522,1.522,0,0,0-1.641.379,3.434,3.434,0,0,1-1.641,1.01q-1.136.379-1.591-.051a3.225,3.225,0,0,0-1.263-.758,8.473,8.473,0,0,0-3.333-.076q-2.525.253-3.081.328-.581.051-3.03.505-2.475.429-3.485.556l-1.01.126h-1.01l-.051.076-.076.051-.076.051-.051.076-.253.076-.253.051v.505l1.263.2a5.506,5.506,0,0,1,1.313.253l.152.1.051.076.051.076.076.051.126.505.126.505.076.379.051.379-.253-.051-.253-.076-.051-.076-.076-.051-.076-.253-.051-.253-.631.2q-.631.177-.505.505.126.3-1.389.556t-1.768-.2a.58.58,0,0,0-.631-.354q-.379.051-.379-.2t-1.061-.379a1.746,1.746,0,0,0-1.515.328q-.455.429-1.97.177t-2.525-.328a1.628,1.628,0,0,0-1.389.4,1.611,1.611,0,0,1-1.263.429,5.117,5.117,0,0,1-1.136-.076q-.253-.051-.631.909a4.6,4.6,0,0,1-1.515,1.818,7.715,7.715,0,0,1-1.389.96.281.281,0,0,0-.253.3q0,.253-.884.455a3.577,3.577,0,0,0-1.591.758,4.918,4.918,0,0,0-1.111,1.263q-.455.682-.707.758-.253.051-.3.808a2.535,2.535,0,0,1-.328,1.136q-.253.379.177,1.944a21.371,21.371,0,0,1,.657,3.182q.177,1.566-.152,1.869a1.29,1.29,0,0,1-.758.4q-.429.051-.682,5.1a23.524,23.524,0,0,0,.328,6.945q.556,1.894.859,2.02.328.126.909,1.692a6.667,6.667,0,0,0,1.869,2.778,5.483,5.483,0,0,1,1.667,2.273,3.283,3.283,0,0,0,1.439,1.843,10.375,10.375,0,0,0,2.9,1.263,4.5,4.5,0,0,1,2.02.884q.253.379,1.894.253a8.269,8.269,0,0,0,2.525-.505,30.684,30.684,0,0,1,3.03-1.01q2.146-.631,2.273-.2.126.455,1.187.076a2.267,2.267,0,0,0,1.414-1.086,4.327,4.327,0,0,1,.682-1.111q.379-.455.631-.455t.631-1.465q.379-1.439.581-2.273a19.159,19.159,0,0,0,.3-1.944,2.587,2.587,0,0,1,1.061-1.843,15.5,15.5,0,0,1,4.116-1.566,30.413,30.413,0,0,1,3.535-.884h2.4l.051-.076.076-.051.076-.051.051-.076h.505l.051.076.076.051-.126,1.263q-.126,1.263-.556,1.515a3.052,3.052,0,0,0-.909,1.641,7.893,7.893,0,0,0-.429,2.146v1.894a9.23,9.23,0,0,1-.177,1.944q-.2.833-.581.758-.379-.051-.379-.3a.223.223,0,0,0-.253-.253h-.253l.2,1.641a37.217,37.217,0,0,1,.177,3.914,5.313,5.313,0,0,1-.505,2.9,6.312,6.312,0,0,0-.631.884l-.126.253-.076.051-.051.076-.051.076-.076.051-.076.253-.051.253.379.051.379.076.505.126.505.126,1.515-.379q1.515-.379,3.662-.758a12.249,12.249,0,0,0,2.9-.758,10.52,10.52,0,0,1,3.03-.631,13.427,13.427,0,0,1,3.333-.076,1.852,1.852,0,0,1,1.414.833q.3.631,1.818.682,1.515.076,1.465.758a5.031,5.031,0,0,0,.177,1.717,3.251,3.251,0,0,1-.253,2.146,6.246,6.246,0,0,0-.126,3.409,10.51,10.51,0,0,0,.556,2.475q.2.177-.177.253-.379.051-.429.682a2.379,2.379,0,0,0,.051,1.01,2.911,2.911,0,0,1-.126,1.389,1.614,1.614,0,0,0,.379,1.641,11.622,11.622,0,0,1,1.212,1.439,6.108,6.108,0,0,0,2.2,1.717A12.832,12.832,0,0,0,200,281.093a9.615,9.615,0,0,0,4.546-.379q1.263-.631,2.222-1.212a3.511,3.511,0,0,0,1.111-.859,2.078,2.078,0,0,1,1.212-.581,10.7,10.7,0,0,1,3.03-.126,9.108,9.108,0,0,1,3.535.884,4.857,4.857,0,0,0,2.652.631q1.136-.126,2.854-2.475,1.692-2.323,2.02-2.2.3.126.429-2.525t.884-3.207a4.768,4.768,0,0,1,1.768-.833,2.32,2.32,0,0,0,1.515-1.136,3.153,3.153,0,0,1,1.97-1.313,5.6,5.6,0,0,0,2.323-1.338,4.7,4.7,0,0,0,.96-1.136q.051-.253.808-.505a1.279,1.279,0,0,0,.884-1.136q.126-.884.505-1.086a1.4,1.4,0,0,0,.429-.253l.076-.051.076-.051.051-.076.051-.076.076-.051.076-.051.051-.076.051-.076.076-.051.076-.051.051-.076.051-.076.076-.051.076-.051.051-.076h1.01l.051.076.076.051.076.051.051.076.051.076.076.051v.758l-.126.379-.126.379-.126.253-.253.505q-.126.253-.96.556l-.808.328.051.076.076.051.126.253.126.253.076.051.051.076.051.076.076.051.429.631q.455.631.96.505t.505,3.535v3.662H227.779v15.657l-4.8-.051q-4.8-.076-5-.505a7.667,7.667,0,0,0-1.515-1.768,29.7,29.7,0,0,1-2.7-3.232,4.443,4.443,0,0,0-2.778-2.071,1.679,1.679,0,0,0-1.944.934,4.037,4.037,0,0,1-1.515,1.692l-.96.581-.051.076-.076.05-.076.051-.051.076.051.076.076.051.682.808q.707.833.758.909l.076.051v.505l-.076.051-.051.076-.253.126-.253.126-.253.126-.253.126-.051.076-.076.051-.076.05-.051.076-.253.126-.253.126-.379.126a1.894,1.894,0,0,1-.884.051q-.505-.05-.505-.682t-1.263-.581a2.772,2.772,0,0,1-1.768-.3q-.505-.379-4.293-.556-3.788-.2-4.167-1.162a3.7,3.7,0,0,0-2.02-1.692,7.776,7.776,0,0,0-3.283-.758,6.635,6.635,0,0,1-2.525-.379l-.884-.379-.051-.076-.076-.051-.076-.05-.051-.076-.051-.076q-.076-.05-.152-.429-.051-.379.455-.505t.505-.379q0-.253-.379-.3-.379-.076-.379-.833t-1.263-1.389a8.7,8.7,0,0,1-2.273-1.641,8.077,8.077,0,0,0-2.652-1.692q-1.641-.707-1.591-1.465l.076-.758-.076-.253-.051-.253h-.505l-.051.253a1.349,1.349,0,0,1-.4.556q-.3.328-1.818.328a16.211,16.211,0,0,1-2.9-.253q-1.389-.253-3.662-.884a14.24,14.24,0,0,0-3.535-.631,9.978,9.978,0,0,1-3.03-.581,5.557,5.557,0,0,1-2.273-1.111q-.505-.581-1.061-1.162a1.7,1.7,0,0,0-1.162-.556q-.556,0-.556-.253t-.505-.126q-.505.126-.556-.379a1.512,1.512,0,0,0-.758-.96q-.707-.429-1.717-.934a9.29,9.29,0,0,0-2.778-.758,3.647,3.647,0,0,0-2.652.379,9.128,9.128,0,0,1-2.4,1.136,9.257,9.257,0,0,1-4.6-.177q-3.106-.707-5.556-1.515-2.475-.833-5-1.717a27.464,27.464,0,0,1-3.914-1.641,13.959,13.959,0,0,1-2.1-1.338,4.312,4.312,0,0,0-1.263-.758l-2.955-.934a7.117,7.117,0,0,1-3.157-1.641,8.484,8.484,0,0,0-2.652-1.818q-1.894-.96-1.894-1.212a.223.223,0,0,0-.253-.253q-.253,0-.758-.707a8.578,8.578,0,0,1-1.01-2.02q-.505-1.313.126-1.439t.379-1.01q-.253-.884,0-.934.253-.076.3-1.01a2.122,2.122,0,0,0-.3-1.465,4.845,4.845,0,0,1-.631-1.894,4.415,4.415,0,0,0-1.187-2.348,14.652,14.652,0,0,1-1.919-2.374,6.556,6.556,0,0,0-1.515-1.843,2.852,2.852,0,0,1-.859-.884,4.833,4.833,0,0,0-1.01-1.061,5.16,5.16,0,0,1-1.263-1.667,4.321,4.321,0,0,0-1.338-1.566q-.758-.505-1.439-.884-.707-.379-.758-.631a.608.608,0,0,0-.4-.379q-.3-.126-.3-1.136t.253-1.01q.253,0,.2-.505-.076-.505-1.843-2.146t-1.843-2.6a1.679,1.679,0,0,0-1.061-1.439,3.4,3.4,0,0,1-1.515-1.439q-.505-.96-.758-.96t-.884-.808a2.032,2.032,0,0,0-1.389-.909q-.758-.051-.455-1.061a6.318,6.318,0,0,0-.354-3.333,32.384,32.384,0,0,1-.909-3.535,2.28,2.28,0,0,0-.859-1.667,1.724,1.724,0,0,1-.833-.859q-.126-.455-.884-.505l-.758-.076-.253-.126-.253-.126-.051-.076-.076-.051-.076-.051-.051-.076-.051-.076-.076-.051-.076-.051-.051-.076h-.758l-.051.076-.076.051.253,3.283q.253,3.283.581,3.409a3.762,3.762,0,0,1,1.01,1.263q.682,1.136,1.515,2.7a8.485,8.485,0,0,0,1.263,2.02,2.774,2.774,0,0,1,.556,1.591q.126,1.136.556,1.389.455.253.833,1.641t.884,1.515q.505.126,1.212,2.146.682,2.02.859,2.576a14.723,14.723,0,0,0,.657,1.515q.429.96.556,1.212a4.953,4.953,0,0,1,.126,1.515q0,1.263.934,1.465a1.571,1.571,0,0,1,1.263.859,11.33,11.33,0,0,1,.455,1.086l.126.379.076.051.051.076.051.076.076.051.076.051.051.076.051.076.076.051v1.263l-.076.051-.051.076-.253.126-.253.126-.051.076-.076.051-.076.051-.051.076-.253.126-.253.126h-.253l-.051-.076-.076-.051-.126-.505-.126-.505-.126-.253a6.176,6.176,0,0,0-.379-.631q-.253-.379-1.338-1.641a6.459,6.459,0,0,0-2.323-1.818,5.824,5.824,0,0,1-1.566-.909.7.7,0,0,1-.152-.808q.2-.505-.051-.556-.253-.076-.253-2.273,0-2.222-.253-2.222t-.3-.379a5.812,5.812,0,0,0-1.515-1.692q-1.465-1.338-1.97-1.338t-2.222-1.843l-1.692-1.818-.126-.253-.126-.253-.076-.051-.051-.076-.051-.076-.076-.051-.076-.051-.051-.076-.051-.076-.076-.051-.076-.051-.051-.076-.051-.076-.076-.051-.076-.051-.051-.076.051-.076.076-.051.076-.051.051-.076.051-.076.076-.051.076.051.051.076.884.379a4.112,4.112,0,0,0,1.136.379H80.3l.051-.076.076-.051.076-.051.051-.076.051-.076.076-.051.126-.253.126-.253.126-.505.126-.505V214.3l-.076-.051-.051-.076-.051-.076a2.62,2.62,0,0,1-.328-.682,7.912,7.912,0,0,0-1.641-2.02,9.175,9.175,0,0,1-2.146-4.04q-.758-2.652-1.768-5.682A21.284,21.284,0,0,1,73.99,197a5.71,5.71,0,0,0-.884-2.778,3.273,3.273,0,0,0-1.338-1.338,1.292,1.292,0,0,1-.808-.859q-.253-.707-.758-.758a3.019,3.019,0,0,1-1.263-.657q-.758-.556-.808-.808-.076-.253-1.465-.884a2.3,2.3,0,0,1-1.515-1.894,9.625,9.625,0,0,0-.379-2.02q-.253-.758-1.01-2.4a4.748,4.748,0,0,1-.505-2.9q.253-1.263-.328-1.717a2.71,2.71,0,0,1-.758-1.768,9.147,9.147,0,0,0-.354-1.768,18.934,18.934,0,0,1-.657-1.869,15.7,15.7,0,0,1-.556-3.359q-.126-1.894-.379-3.914a3.886,3.886,0,0,1,.253-2.652,7.289,7.289,0,0,0,.884-2.9q.379-2.273.631-3.914a6.813,6.813,0,0,1,1.01-2.778,9.56,9.56,0,0,0,1.136-2.273q.379-1.136,1.768-4.293a23.619,23.619,0,0,0,1.768-7.45q.379-4.293.96-4.495l.556-.177-.05-.076a2.8,2.8,0,0,0-.4-.177.41.41,0,0,1-.3-.379.281.281,0,0,0-.253-.3q-.253-.076-.631-.707t-2.1-3.586a15.172,15.172,0,0,1-1.944-4.621q-.253-1.641.581-1.692.808-.076.808-3.434,0-3.333-.505-3.46t-.3-1.01a2.588,2.588,0,0,0-.455-1.894,4.006,4.006,0,0,1-.556-2.4q.051-1.389.3-1.439.253-.076.758-1.263.505-1.212.253-1.212t-.253-.556q0-.581-.379-.707t-.429-1.061l-.076-.96.076-.051.051-.076-.051-.076-.076-.051-.126-.253-.126-.253-.076-.051-.051-.076-.051-.076-.076-.051-.253,1.01a8.245,8.245,0,0,1-.379,1.263l-.126.253-.126.253-.126.253-.076.051-.051.076h-.253l-.051-.076-.076-.051-.126-.631-.126-.631-.076-.051-.051-.076L60.808,104l-.076-.051-.076.379-.051.379H60.1v-1.01q0-1.01-.253-1.01t-.2-.631a1.659,1.659,0,0,1,.455-1.01,1.658,1.658,0,0,0,.253-1.389,6.275,6.275,0,0,1,.126-2.146,1.784,1.784,0,0,1,1.591-1.389l1.313-.253.051-.379.076-.379.076-.253.051-.253-.253.051-.253.076-.051.076-.076.051-.076.051-.051.076-.253.126-.253.126-.96.429q-.934.455-1.061.833l-.126.379-.076.051L60.1,97l-.051.076-.076.051-.076.253-.051.253h-.758l.051-1.263q.076-1.263.2-3.662t.505-2.652q.379-.253-.2-.808a4.431,4.431,0,0,1-.859-2.172,10.764,10.764,0,0,0-.833-2.576,4.069,4.069,0,0,1-.505-1.768,5.811,5.811,0,0,0-1.515-2.652,15.578,15.578,0,0,0-2.6-2.7,6.022,6.022,0,0,1-1.439-1.465,7.84,7.84,0,0,1-.631-1.313q-.253-.707-.505-.758-.253-.076-.505-.657-.253-.556-.505-.606a.444.444,0,0,1-.3-.4q-.076-.3.253-.177.3.126.3-.884v-1.01l-.505-.051-.505-.076L48.94,69.9l-.076-.051-.076-.051-.051-.076-.051-.076-.076-.051-.076-.05-.051-.076h-.253q-.253,0-.379.581a1.065,1.065,0,0,1-.505.758,5.269,5.269,0,0,1-1.389.3,2.2,2.2,0,0,1-1.389-.126,9.115,9.115,0,0,0-2.652-.505l-2.273-.253-.051-.076-.076-.05-.076-.051-.051-.076-.051-.076-.076-.051-.076-.051-.051-.076-.051-.076-.076-.051v-.758l.076-.051.051-.076.379-.076.379-.051.051-.379.076-.379,1.338-.808q1.313-.833,1.439-.96a3.6,3.6,0,0,1,1.263-.253l1.136-.126.505-.126.505-.126-.051-.076-.076-.05-.076-.051-.051-.076-1.01-.126-1.01-.126-.051-.076-.076-.05-.076-.051-.051-.076-.051-.076q-.076-.051-.758.253a17.87,17.87,0,0,1-2.98.833q-2.273.505-3.283.758t-.707.833q.328.556.152.859-.2.328-3.864.328a25.551,25.551,0,0,0-4.672.253,7.035,7.035,0,0,1-2.9-.126,5.9,5.9,0,0,0-2.652-.126,4.11,4.11,0,0,1-2.146-.076q-1.389-.3-1.338-.556.076-.253-.859-.505-.96-.253-1.212.05-.253.328-.631-.859-.379-1.212-1.263-1.162l-.884.076-.051-.076-.076-.05-.076-.051-.051-.076-.253-.126-.253-.126-.051-.076-.076-.05-.126-.379-.126-.379v-.505l.076-.051.051-.076h.758l1.768.253q1.768.253,2.071.682.328.455.253.707-.051.253,2.98.455a23.116,23.116,0,0,0,5-.152,7.261,7.261,0,0,0,2.626-.758,4.947,4.947,0,0,0,.758-.505l.076-.051L28.99,64l.051-.076.051-.076.076-.051.076-.051.051-.076.253-.126.253-.126.253-.126.253-.126-.051-.076-.076-.051-.076-.051-.051-.076L30,62.834l-.076-.051-.076-.051-.051-.076-.253-.126a1.172,1.172,0,0,1-.455-.455q-.177-.3-.859-.3-.707,0-.657-1.389a3.07,3.07,0,0,0-.3-1.894,2.589,2.589,0,0,0-1.313-.808L25,57.354l-.051-.076-.076-.051-.076-.379-.051-.379L25,56.419l.253-.076.051-.076.076-.051.076-.051.051-.076.051-.076.076-.051.076-.051q.051-.076,1.364-1.162A8.3,8.3,0,0,1,28.99,53.49a1.138,1.138,0,0,0,.758-.758l.177-.556L30,52.126l.051-.076.758-.126.758-.126-.051-.076-.076-.051-.076-.379-.051-.379-.253.051-.253.076-.631.126a2.167,2.167,0,0,0-1.086.556,1.539,1.539,0,0,1-1.01.505l-.556.076-.253-.126-.253-.126-.253-.126-.253-.126-.051-.076-.076-.051-.126-.379-.126-.379v-.505l.126-.253.126-.253.328-1.313a2.133,2.133,0,0,1,1.111-1.667q.833-.3.833-.934a3.849,3.849,0,0,1,.581-1.692q.556-1.086,2.626-1.162a7.836,7.836,0,0,0,3.03-.505,3.148,3.148,0,0,1,1.591-.354q.631.051.758.859.126.833,1.515,1.465a5.828,5.828,0,0,0,2.273.631,1.9,1.9,0,0,0,1.439-.581,2.334,2.334,0,0,0,.707-1.061l.126-.505.076.051.051.076.253.126.253.126.253.076.253.051.051-.253.076-.253v-.505L44.5,42.53l-.051-.076-.253-.126L43.94,42.2l-.379-.126L42.424,41.7a1.376,1.376,0,0,1-.96-.934,6.474,6.474,0,0,0-.934-1.843,5.611,5.611,0,0,1-.884-1.768,1.734,1.734,0,0,1,.253-1.263,3.026,3.026,0,0,1,.808-.934,2.214,2.214,0,0,0,.657-1.414l.177-1.061.076-.051.051-.076h.758l1.212.581q1.187.556,1.263.934.051.379.808.177.758-.177,1.01.076a1.978,1.978,0,0,0,.505.379l.253.126.051.076.076.051.076.051.051.076.051.076.076.051-.177.455a1.322,1.322,0,0,1-.505.606.56.56,0,0,0-.328.455,3.454,3.454,0,0,0,.126.758l.126.505.076.051.051.076.051.076.076.051.076.051.051.076.051.076.076.051.076.051.051.076h1.01l.051-.076.076-.051.076-.051.051-.076.253-.076.253-.051.051-.379.076-.379.253-1.641a5.036,5.036,0,0,1,.758-2.273,7.2,7.2,0,0,0,.934-2.7q.455-2.1,1.591-2.349a1.657,1.657,0,0,1,1.768.505,2.486,2.486,0,0,0,2.02.758H59.47a2.174,2.174,0,0,1,1.768.758,1.588,1.588,0,0,0,1.515.631,8.073,8.073,0,0,0,1.263-.253q.379-.126,1.136.505a6.308,6.308,0,0,0,2.02,1.061q1.263.455,1.136,1.212t.328.884q.429.126.354.758a.815.815,0,0,0,.505.884q.581.253.707,1.641A3.03,3.03,0,0,0,70.91,39.6a2.262,2.262,0,0,0,.859.657q.328.051.707.682a3.486,3.486,0,0,1,.455,1.515,2.136,2.136,0,0,0,.758,1.515,5.113,5.113,0,0,1,.859.934,2.4,2.4,0,0,0,.96.707,3.442,3.442,0,0,1,1.313,1.212,10.049,10.049,0,0,1,1.01,1.768,4.9,4.9,0,0,0,1.263,1.616,3.347,3.347,0,0,1,1.086,1.97q.253,1.263.429,1.894a1.256,1.256,0,0,0,.96.833q.758.177,1.01-.2t1.212-.2q.934.2,1.111.505a.851.851,0,0,0,.581.4q.379.051.177.934-.177.884.4.682a2.035,2.035,0,0,1,1.187,0q.631.2.631.581t.808.253a1.662,1.662,0,0,0,1.263-.934,2.146,2.146,0,0,1,1.843-.96,2.586,2.586,0,0,0,1.843-.707q.429-.556.859,1.515a5.071,5.071,0,0,0,.833,2.349q.379.253.505-.076a2.191,2.191,0,0,1,.884-.758q.758-.429.758.833t.556,1.086q.581-.2.657-.455.051-.253,1.187.051a3.179,3.179,0,0,1,1.768,1.212,8.532,8.532,0,0,0,1.692,1.717,14.483,14.483,0,0,1,1.768,1.515,4.342,4.342,0,0,0,1.919,1.01,2.469,2.469,0,0,1,1.692,1.313q.505,1.01-.253,1.389a2.3,2.3,0,0,0-.934.682q-.2.328,1.566,1.086a7.409,7.409,0,0,0,3.662.581q1.894-.2,2.02.1a.982.982,0,0,0,.682.505q.581.2.657.455.051.253.505.126.429-.126.429-1.136a3.693,3.693,0,0,0-.126-1.263q-.126-.253.2-.556a5.407,5.407,0,0,1,2.071-.758q1.768-.455,2.02.3t.707.758q.429,0,.3.379a1.355,1.355,0,0,0,.051.884.868.868,0,0,0,.909.505,2.161,2.161,0,0,1,1.364.556q.707.581,3.485.657,2.778.051,2.9-1.086t.379-1.136q.253,0,.126-.707a1.386,1.386,0,0,0-1.01-1.01q-.884-.3-.884-.682t.556-.631a1.88,1.88,0,0,0,.909-1.212q.3-.934.758-.859.429.051.505.3.051.253.808.379a1.692,1.692,0,0,1,1.212,1.01,2.715,2.715,0,0,1,.3,1.641,1.019,1.019,0,0,1-.96.884q-.808.126-.556.682a.983.983,0,0,0,.758.657q.505.05.631,1.566t.429,1.263a1.755,1.755,0,0,0,.455-1.136,2.892,2.892,0,0,1,.884-1.641,2.572,2.572,0,0,0,.833-1.313.657.657,0,0,0-.4-.758q-.429-.2-.505-1.414-.05-1.187-.808-1.263-.758-.051-.808-.556a1.856,1.856,0,0,0-.581-1.01q-.505-.505-.682-2.9-.2-2.4.177-2.4t.581-2.02a9.312,9.312,0,0,0,0-2.652q-.2-.631.859-.505,1.086.126.96,1.01t-.2,1.692a1.692,1.692,0,0,0,.328,1.263q.379.455.631.455t1.313,2.4a9.968,9.968,0,0,1,1.086,3.409q0,1.01,1.086,1.061,1.061.076,1.313.455t0,.455q-.253.051.2.934.429.884.758,0a.915.915,0,0,1,1.187-.682,4.414,4.414,0,0,1,1.187.354q.328.2.505,1.515.2,1.338.328,2.1a3.219,3.219,0,0,0,.758,1.515q.631.758,1.187.429.581-.3.076-1.566t.076-1.263q.556,0,.682-1.97a6.454,6.454,0,0,0-.177-2.626,2.14,2.14,0,0,1-.2-1.338,1.076,1.076,0,0,1,.556-.833,4.866,4.866,0,0,1,1.263-.253q.833-.051.909-.3Z" fill="#47567d" fill-rule="evenodd"/>
      <path id="svg_3" d="M520.253,129.537,520,127.265l1.818.076q1.843.051,2.222.682t.707-.076q.3-.682,11.035-.758,10.732-.051,10.732.581t.455.505a.648.648,0,0,0,.505-.505q.051-.379.758,0a1.328,1.328,0,0,1,.758,1.01q.051.631,1.061.758t.884.429a1.953,1.953,0,0,1-.833.758q-.682.455-.429.707a1.319,1.319,0,0,1,.328.758q.051.505,1.263.631a3.715,3.715,0,0,1,1.616.429,1.566,1.566,0,0,0,1.212.2,11.821,11.821,0,0,1,1.894-.126,2.254,2.254,0,0,1,1.641.505q.505.505,2.273.328,1.768-.2,1.768,3.586t-.808,3.535a20.19,20.19,0,0,1-2.525-1.061q-1.717-.833-2.172-.657a.563.563,0,0,0-.354.657,1.321,1.321,0,0,0,.354.758.926.926,0,0,1,.253.859q-.051.581,1.717,1.338a16.5,16.5,0,0,0,2.576.934q.833.2.909,2.98.051,2.778-.707,2.727a4.163,4.163,0,0,0-1.136,0l-.379.051.05.253.076.253.076.051.051.076.05.076.076.051.076.051.05.076.884.328q.884.3.884,1.818v1.515l-.758-.051a9.425,9.425,0,0,1-1.641-.328q-.884-.253-1.01.177-.126.455-.758.4a6.18,6.18,0,0,1-2.02-.909q-1.389-.808-1.338-1.061.076-.253-.505-.3a5.864,5.864,0,0,1-1.818-.833,5.3,5.3,0,0,1-1.465-1.086q-.177-.3-.859-.354a.84.84,0,0,0-.96.606,1.066,1.066,0,0,1-1.01.758,1.533,1.533,0,0,0-1.136.581,2.126,2.126,0,0,1-1.515.631l-1.136.126-.379-.076-.379-.05-.051-.253-.076-.253-.076-.051-.051-.076-.05-.076-.076-.051v-1.263l.076-.051.05-.076.051-.076.076-.051.126-.253.126-.253v-.253l-.076-.379q-.051-.379,1.212-.581a6.647,6.647,0,0,0,2.02-.556,4.338,4.338,0,0,0,.808-.455l.076-.051.126-.253a6.938,6.938,0,0,0,.3-.758q.2-.505-.505-.884-.682-.379-.3-3.157l.379-2.778-.076-.051-.051-.076-.05-.076-.076-.051-.076-.051-.051-.076-.05-.076-.076-.051-.076-.051-.05-.076-.051-.076-.076-.051-.076-.051-.051-.076-.05-.076-.076-.051-.076-.051-.05-.076-.253-.126-.253-.126-.051-.076-.076-.05-.126.253-.126.253-.076.051-.051.076-.05.076-.076.051-.076.051-.051.076-.884.076q-.884.051-.833.429a3.209,3.209,0,0,1-.1,1.187l-.2.833-.05.076-.076.051-.076.05-.051.076-.253.126-.253.126-.253.126-.253.126h-.505l-.051-.076-.076-.05-.076-.051-.051-.076-.05-.076-.076-.051-.126-.253-.126-.253-.126-.379-.126-.379V139.26l.126-.379.126-.379.076-.051.051-.076.051-.076.076-.05.076-.051.05-.076.379-.126a1.932,1.932,0,0,1,1.136.126q.758.253.808.177l.151-.1.051-.076.379-.126.379-.126.505-.076.505-.05v-.505l-.253-.051-.253-.076-.379-.126-.379-.126-.631-.076q-.631-.051-.631.328t-.379.328q-.379-.076-.379-.909v-.808l-.505.051a1.049,1.049,0,0,0-.758.455l-.253.379-.05.076-.076.051-.076.051-.051.076-.05.076-.076.05-.076-.05-.05-.076-.051-.076-.076-.051-.076-.051-.051-.076-.05-.076-.076-.051v-.253a.56.56,0,0,1,.328-.455.684.684,0,0,0,.354-.505q.076-.3-.758-.505a4.2,4.2,0,0,1-1.768-1.01,5.019,5.019,0,0,0-1.768-1.061l-.808-.253.05.253a2.479,2.479,0,0,1,0,.884q-.05.631-1.313.631t-1.263.379q0,.379-.505.379h-.505l-.126.051q-.126.076-.126.152v.051l-.126.051q-.126.076-.126.152v.051h-.505l-.051-.126q-.076-.126-.151-.126H530.1l-.253.051a29.943,29.943,0,0,1-3.409-.051,13.053,13.053,0,0,1-3.788-.455l-.631-.3-.05-.253-.076-.253-.076-.051-.051-.076-.051-.076-.076-.05-.076-.505q-.051-.505.328-.556.379-.076.631-.152l.253-.051v-.505l-.884.051a2.638,2.638,0,0,1-1.136-.051Q520.505,131.81,520.253,129.537Z" transform="translate(-379.342 -73.951)" fill="#47567d" stroke="#b8db7c" stroke-width="0.5" fill-rule="evenodd"/>
    </g>
  </g>
</svg>
