<svg xmlns="http://www.w3.org/2000/svg" xmlns:xlink="http://www.w3.org/1999/xlink" width="95" height="134" viewBox="0 0 95 134">
  <defs>
    <clipPath id="clip-path">
      <rect id="Rectangle_27" data-name="Rectangle 27" width="95" height="134" transform="translate(106 819)" fill="#fff" stroke="#707070" stroke-width="1"/>
    </clipPath>
  </defs>
  <g id="planlogo" transform="translate(-106 -819)" clip-path="url(#clip-path)">
    <g id="logo" transform="translate(-151.048 587.144)">
      <path id="Path_42" data-name="Path 42" d="M325.8,232.856c1.036.932,2.274,1.7,2.611,3.2.057.254.286.279.5.29a2.635,2.635,0,0,0,.637.008c3.836-.773,6.381,1.062,8.89,3.779,4.69,5.079,9.713,9.851,14.66,14.813,5.72-5.726,11.389-11.347,16.98-17.045a4.072,4.072,0,0,1,3.725-1.554c.52.079,1.066-.022,1.595.019,1.358.106,2.591.149,3.048-1.6.244-.935,1.445-1.132,1.978-1.913H383.3c1.63,1,3.012,2.14,2.94,4.322a4.2,4.2,0,0,1-3.33,4.122,4.028,4.028,0,0,1-4.664-2.179c-.449-1.033-1.053-1.116-2.019-1.239-2.781-.355-4.714.683-6.634,2.715-5.041,5.337-10.354,10.415-15.506,15.648-.788.8-1.17.785-1.95-.005-5.456-5.532-11.011-10.966-16.429-16.534a5.136,5.136,0,0,0-4.434-1.816c-1.5.121-2.848-.179-3.679,1.757-.654,1.523-2.406,2.031-4.132,1.69a4.008,4.008,0,0,1-3.372-3.214,4.128,4.128,0,0,1,1.679-4.5c.373-.272.771-.51,1.157-.763Zm1.128,4.2a2.722,2.722,0,0,0-2.842-2.6A2.6,2.6,0,0,0,321.6,237.2a2.653,2.653,0,0,0,2.786,2.623A2.787,2.787,0,0,0,326.929,237.059Zm57.694.1a2.592,2.592,0,0,0-2.678-2.708,2.718,2.718,0,0,0-2.65,2.633,2.774,2.774,0,0,0,2.728,2.736A2.665,2.665,0,0,0,384.624,237.164Z" transform="translate(-74.806 0)" fill="#089cfa"/>
      <path id="Path_43" data-name="Path 43" d="M288.695,281.044c3.07-.32,5.682-.612,8.3-.852.746-.068,1.578-.511,2.223.3.231.29.459.14.669-.041a1.78,1.78,0,0,0,.341-.334c2.077-3.12,5.071-3.523,8.57-3.393,6.432.239,12.88.089,19.322.046a2.985,2.985,0,0,1,2.368.99c2.675,2.745,5.416,5.425,8.108,8.153a1.873,1.873,0,0,0,2.064.693,4.136,4.136,0,0,1,4.755,2.33,4.3,4.3,0,0,1-6.547,5.188,4.1,4.1,0,0,1-1.181-5.159,1.379,1.379,0,0,0-.324-1.991q-3.947-3.844-7.792-7.79a2.489,2.489,0,0,0-1.959-.8c-7.4.027-14.8.059-22.2-.02-1.452-.016-2.041.965-2.84,1.747-2.226,2.175-2.212,2.194-.541,4.8,1.516,2.365,3.04,4.725,4.684,7.279,1.651-1.693,3.2-3.225,4.678-4.822a2.73,2.73,0,0,1,2.242-.91c3.992.044,7.986.055,11.977-.006a2.973,2.973,0,0,1,2.354,1.021c4.265,4.317,8.576,8.588,12.849,12.9a1.484,1.484,0,0,0,2.028.445,4.119,4.119,0,0,1,5.12,1.337,4.32,4.32,0,0,1-.09,5.2,4.229,4.229,0,0,1-5.173,1.217,4.021,4.021,0,0,1-2.307-4.743,2.153,2.153,0,0,0-.713-2.336q-6.318-6.216-12.542-12.527a2.79,2.79,0,0,0-2.213-.949q-5.349.078-10.7,0a2.568,2.568,0,0,0-2.085.882c-1.24,1.318-2.517,2.6-3.841,3.836a1.114,1.114,0,0,0-.156,1.743c1.219,1.736,2,4.086,3.635,5.134,1.592,1.022,4.035.248,6.1.279,2.555.038,5.111.044,7.665-.009a2.79,2.79,0,0,1,2.239.9q8.149,8.225,16.378,16.371a3.011,3.011,0,0,1,.952,2.388c-.044,4.578,0,9.156-.032,13.734-.006.918.083,1.51,1.147,1.913a4.1,4.1,0,0,1,2.466,4.828,4.309,4.309,0,0,1-8.223.5,4.159,4.159,0,0,1,1.869-5.1,1.893,1.893,0,0,0,1.118-1.984q-.072-6.707,0-13.415a2.851,2.851,0,0,0-.923-2.241q-7.769-7.7-15.489-15.452c-.365-.364-.668-.82-1.3-.818-4.235.012-8.469.006-13.027.006.716,1.141,1.262,2.024,1.821,2.9,1.717,2.689,3.4,5.4,5.185,8.044a1.368,1.368,0,0,1-.094,1.928c-1.217,1.524-2.366,3.1-3.768,4.956h6.775c2.129,0,4.262.067,6.387-.026,1.161-.051,1.4.366,1.4,1.447-.038,9.742-.012,19.484-.037,29.226,0,1.07.072,1.808,1.288,2.332a4.054,4.054,0,0,1,2.019,4.887,4.311,4.311,0,0,1-8.236-.016,4.085,4.085,0,0,1,2.052-4.887c1.165-.495,1.25-1.184,1.247-2.2-.02-9.157-.049-18.313.026-27.469.012-1.451-.407-1.762-1.775-1.726-3.671.1-7.346.063-11.019.013a2.282,2.282,0,0,0-2.12,1.023c-3.579,4.82-7.222,9.592-10.83,14.362.372.644.908.4,1.332.4,3.407.023,6.816.076,10.22-.018,1.4-.038,1.9.265,1.88,1.8-.1,6.547-.026,13.1-.057,19.643a1.843,1.843,0,0,0,1.177,2.071,4.013,4.013,0,0,1,2.186,4.8,4.2,4.2,0,0,1-4.219,3.213,4.3,4.3,0,0,1-4.083-3.21,4.1,4.1,0,0,1,2.218-4.811,1.822,1.822,0,0,0,1.2-2.037q-.06-9.182,0-18.366c.009-1.087-.25-1.47-1.4-1.443-3.246.077-6.494.021-9.742.036-.344,0-.8-.174-1.006.234s.222.676.417.957c.968,1.4,1.941,2.8,2.977,4.148a1.478,1.478,0,0,1,.034,2.088c-1.623,2.173-3.121,4.439-4.745,6.611a1.136,1.136,0,0,0,.145,1.83c2.79,2.7,5.484,5.508,8.279,8.207.79.763.836,1.179.021,1.981-5.008,4.929-9.951,9.924-14.933,14.88a1.83,1.83,0,0,0-.655,2.29,4.074,4.074,0,0,1-1.889,4.948,4.31,4.31,0,0,1-5.153-.641,4.265,4.265,0,0,1-.665-5.273,4.129,4.129,0,0,1,4.98-1.807,1.649,1.649,0,0,0,2.057-.494q6.91-6.98,13.893-13.887c.747-.738.945-1.178.075-2-2.318-2.2-4.565-4.469-6.78-6.769-.74-.768-1.26-.874-1.749.138-.4.837-.921.936-1.784.591q-7.251-2.894-14.552-5.664c-.852-.322-1.023-.761-1.113-1.614a5.053,5.053,0,0,1,1.857-4.583c3.04-2.824,5.88-5.862,8.857-8.757a1.645,1.645,0,0,0,.478-2.189c-1.411-3.059-2.729-6.159-4.388-9.166,0,2.045-.038,4.092.018,6.135.025.919-.164,1.311-1.21,1.3-5.216-.054-10.434-.044-15.651-.006-.909.007-1.195-.272-1.17-1.175.057-2.075.018-4.151.018-6.244-.628-.005-.584.557-.731.886-1.235,2.764-2.4,5.559-3.669,8.309a1.554,1.554,0,0,0,.407,2.064c3.309,3.24,6.566,6.533,9.841,9.809.751.752,1.311,3.73.862,4.6-.188.366-.571.429-.915.563-4.9,1.9-9.813,3.785-14.693,5.742a1.179,1.179,0,0,1-1.768-.641c-.446-.872-.9-.97-1.645-.19-2.287,2.378-4.629,4.706-7,7-.662.642-.62,1.027.015,1.656q7.149,7.08,14.23,14.227a1.453,1.453,0,0,0,1.8.381,4.21,4.21,0,0,1,5.12,1.811,4.283,4.283,0,0,1-5.88,5.86,4.125,4.125,0,0,1-1.788-5.12,1.545,1.545,0,0,0-.523-1.9c-5.021-4.991-10-10.024-15.046-14.992-.821-.808-.945-1.237-.037-2.1,2.739-2.6,5.339-5.351,8.061-7.973.791-.762.959-1.252.226-2.2-1.628-2.1-3.076-4.339-4.653-6.479a1.388,1.388,0,0,1-.014-1.955c1.073-1.388,2.048-2.85,3.085-4.267.528-.721.725-1.194-.512-1.183q-5.11.044-10.221,0c-.739-.006-1.028.2-1.025.991.025,6.494.036,12.989-.01,19.484-.007.9.572.984,1.121,1.265a4.261,4.261,0,0,1-1.982,8.11A4.257,4.257,0,0,1,239,364.8a4.067,4.067,0,0,1,2.285-4.624,1.731,1.731,0,0,0,1.146-1.931c-.037-6.654.013-13.309-.049-19.963-.012-1.251.309-1.638,1.587-1.6,3.4.089,6.813.039,10.22.021a2.252,2.252,0,0,0,1.657-.29c-.7-.938-1.374-1.864-2.064-2.779-2.949-3.907-5.914-7.8-8.84-11.724a2.01,2.01,0,0,0-1.809-1q-5.908.078-11.817,0c-1.01-.015-1.241.324-1.238,1.275q.046,14.213,0,28.427a1.448,1.448,0,0,0,1.011,1.529A4.253,4.253,0,1,1,225.117,357a4.074,4.074,0,0,1,2.373-4.861c1-.435.961-1.08.96-1.883-.007-9.742.029-19.484-.041-29.226-.011-1.436.382-1.767,1.769-1.735,4.136.1,8.277.035,12.769.035-1.234-1.658-2.194-3.167-3.378-4.47-.982-1.08-.874-1.856-.1-2.992,2.042-2.982,3.947-6.059,5.888-9.109.21-.331.7-.685.385-1.095-.155-.2-.674-.159-1.029-.16-3.673-.01-7.347.019-11.019-.025a2.482,2.482,0,0,0-1.937.853q-7.713,7.757-15.475,15.466a2.685,2.685,0,0,0-.9,2.09q.061,6.867,0,13.734a1.668,1.668,0,0,0,1.011,1.723,4.144,4.144,0,0,1,2,5.047,4.3,4.3,0,0,1-8.259-.423,4.129,4.129,0,0,1,2.505-4.813,1.544,1.544,0,0,0,1.115-1.768c-.028-4.685.005-9.369-.03-14.054a2.679,2.679,0,0,1,.869-2.1q8.275-8.212,16.488-16.487a2.658,2.658,0,0,1,2.089-.875c4.258.041,8.518,0,12.776.037a1.91,1.91,0,0,0,1.927-1.046c.878-1.517,1.836-2.993,2.846-4.425a1.117,1.117,0,0,0-.209-1.737c-1.391-1.316-2.737-2.683-4.068-4.062a1.947,1.947,0,0,0-1.548-.622c-3.78.023-7.56.038-11.339-.009a2.286,2.286,0,0,0-1.763.87c-4.132,4.149-8.258,8.3-12.429,12.414a2.518,2.518,0,0,0-.892,2.726,4.016,4.016,0,0,1-2.962,4.784,4.28,4.28,0,0,1-3.162-7.908,3.7,3.7,0,0,1,3.534-.133c1.046.573,1.585.176,2.281-.528,4.229-4.278,8.509-8.506,12.734-12.787a2.976,2.976,0,0,1,2.364-1c3.992.058,7.985.052,11.977,0a2.748,2.748,0,0,1,2.232.936c1.274,1.359,2.654,2.617,3.925,3.978.632.676.952.538,1.4-.169q2.545-4.052,5.167-8.056c.375-.575.5-1.037-.122-1.492a1.549,1.549,0,0,1-.339-.338c-1.726-2.413-4-3.107-6.983-2.991-6.325.246-12.667.1-19,.051a3.144,3.144,0,0,0-2.495,1.058c-2.483,2.56-5.016,5.072-7.562,7.57-.587.577-.842.979-.365,1.854a4.123,4.123,0,0,1-1.015,5.2,4.308,4.308,0,0,1-6.71-5,4.188,4.188,0,0,1,4.845-2.439,1.778,1.778,0,0,0,1.942-.606c2.727-2.769,5.51-5.482,8.219-8.268a2.986,2.986,0,0,1,2.379-.965q11.419.054,22.838-.006a3.23,3.23,0,0,1,2.9,1.223,7.469,7.469,0,0,0,1.011,1.019c.835.746,1.282,1.817,2.991,1.17,1.293-.489,3.022.169,4.556.327s3.06.329,4.6.5c.154-.6-.342-.764-.6-1.026-2.734-2.762-5.5-5.491-8.225-8.262a2.671,2.671,0,0,0-2.084-.9q-12.217.049-24.435,0a1.748,1.748,0,0,0-1.836,1.086,4.124,4.124,0,0,1-5.029,2.034,4.285,4.285,0,0,1,.367-8.259,4.116,4.116,0,0,1,4.9,2.606c.381,1.055,1,1.035,1.819,1.034,8.256-.009,16.512.011,24.768-.025a3.181,3.181,0,0,1,2.517,1.032c3.272,3.352,6.621,6.63,9.907,9.967a3.814,3.814,0,0,0,2.322,1.165A35.892,35.892,0,0,0,285,281.419a3.176,3.176,0,0,0,1.922-.939c3.295-3.33,6.642-6.608,9.913-9.962a3.684,3.684,0,0,1,2.915-1.236c8.091.054,16.183.012,24.275.047,1.106,0,1.8-.113,2.264-1.361a4.048,4.048,0,0,1,4.77-2.288,4.291,4.291,0,0,1,.46,8.218,4.06,4.06,0,0,1-4.994-1.756,2.33,2.33,0,0,0-2.5-1.331q-11.818.055-23.636,0a3.175,3.175,0,0,0-2.514,1.032C294.953,274.837,291.97,277.772,288.695,281.044Zm.8,32.685c1.477-1.3,2.994-2.553,4.419-3.9a4.419,4.419,0,0,1,3.667-1.439c1.689.154,3.4.042,5.106.03.466,0,.975.125,1.365-.266,1.522-1.527,3.04-3.059,4.806-4.837-5.116,0-9.883,0-14.65,0a.8.8,0,0,0-.831.574c-1.348,3.229-2.719,6.449-4.083,9.672-.245.105-.276.267-.124.476Zm-20.147,0,.323.3c.157-.209.121-.368-.122-.473-1.364-3.222-2.735-6.442-4.083-9.671a.8.8,0,0,0-.831-.574c-4.767,0-9.534,0-14.813,0,1.649,1.606,3,2.854,4.266,4.183a2.706,2.706,0,0,0,2.226.944c1.914-.065,3.832.013,5.747-.035a2.832,2.832,0,0,1,2.146.786C265.893,310.736,267.633,312.219,269.351,313.725Zm-26.139,47.5a2.809,2.809,0,0,0-2.707,2.782,2.739,2.739,0,0,0,2.7,2.6,2.649,2.649,0,0,0,2.683-2.578A2.775,2.775,0,0,0,243.212,361.227Zm75.134,2.684a2.81,2.81,0,0,0-2.807-2.681,2.777,2.777,0,0,0-2.573,2.739,2.653,2.653,0,0,0,2.782,2.637A2.747,2.747,0,0,0,318.346,363.911Zm-86.887-93.963a2.661,2.661,0,0,0-2.522-2.734,2.63,2.63,0,0,0-2.856,2.549,2.69,2.69,0,1,0,5.377.184Zm101.309-.171a2.629,2.629,0,0,0-2.842-2.563,2.657,2.657,0,0,0-2.536,2.72,2.69,2.69,0,1,0,5.378-.157ZM217.063,339.033a2.893,2.893,0,0,0-2.812-2.714,2.835,2.835,0,0,0-2.592,2.74,2.656,2.656,0,0,0,2.609,2.663A2.789,2.789,0,0,0,217.063,339.033Zm130.126.212a2.838,2.838,0,0,0-2.563-2.926,2.88,2.88,0,0,0-2.817,2.531,2.759,2.759,0,0,0,2.429,2.857A2.671,2.671,0,0,0,347.189,339.246Zm-135.527-34.72a2.753,2.753,0,0,0,2.577,2.882,2.864,2.864,0,0,0,2.807-2.524,2.765,2.765,0,0,0-2.613-2.845A2.657,2.657,0,0,0,211.662,304.525ZM344.6,302.037a2.8,2.8,0,0,0-2.811,2.666,2.935,2.935,0,0,0,2.643,2.721,2.784,2.784,0,0,0,2.759-2.717A2.645,2.645,0,0,0,344.6,302.037ZM229.307,353.248a2.792,2.792,0,0,0-2.7,2.611,2.664,2.664,0,1,0,5.324.228A2.751,2.751,0,0,0,229.307,353.248Zm102.944,2.711a2.792,2.792,0,0,0-2.608-2.711,2.756,2.756,0,0,0-2.731,2.74,2.67,2.67,0,1,0,5.339-.029Zm-60.968,26.98a2.728,2.728,0,0,0-2.68-2.761,2.675,2.675,0,0,0-2.643,2.6,2.54,2.54,0,0,0,2.476,2.719A2.674,2.674,0,0,0,271.283,382.939Zm18.9,2.561a2.537,2.537,0,0,0,2.7-2.492,2.691,2.691,0,0,0-2.572-2.83,2.737,2.737,0,0,0-2.75,2.691A2.665,2.665,0,0,0,290.186,385.5Zm-72.925-97.451a2.829,2.829,0,0,0-2.63,2.688,2.765,2.765,0,0,0,2.744,2.716,2.7,2.7,0,0,0-.114-5.4Zm126.957,2.712a2.689,2.689,0,1,0-2.768,2.691A2.766,2.766,0,0,0,344.218,290.761Z" transform="translate(0 -22.268)" fill="#089cfa"/>
      <path id="Path_57" data-name="Path 57" d="M370.758,547.612c6-2.009,11.688-3.911,17.373-5.812a1.932,1.932,0,0,1,1.253-.022l17.453,5.831c-2.224,1.359-4.254,2.6-6.282,3.838q-5.365,3.283-10.733,6.564c-.475.289-.9.727-1.575.31C382.512,554.79,376.762,551.284,370.758,547.612Z" transform="translate(-109.374 -210.178)" fill="#089cfa"/>
    </g>
  </g>
</svg>
